<svg xmlns="http://www.w3.org/2000/svg" viewBox="0 0 1200 600" fill="none" aria-hidden="true">
  <defs>
    <linearGradient id="lineGrad" x1="0%" y1="0%" x2="100%" y2="0%">
      <stop offset="0%" stop-color="rgba(59,130,246,0.06)" />
      <stop offset="50%" stop-color="rgba(139,92,246,0.08)" />
      <stop offset="100%" stop-color="rgba(59,130,246,0.06)" />
    </linearGradient>
    <linearGradient id="nodeGrad" x1="0%" y1="0%" x2="0%" y2="100%">
      <stop offset="0%" stop-color="rgba(59,130,246,0.12)" />
      <stop offset="100%" stop-color="rgba(139,92,246,0.08)" />
    </linearGradient>
    <pattern id="grid" width="60" height="60" patternUnits="userSpaceOnUse">
      <path d="M 60 0 L 0 0 0 60" fill="none" stroke="rgba(255,255,255,0.02)" stroke-width="0.5"/>
    </pattern>
  </defs>
  <!-- subtle grid -->
  <rect width="100%" height="100%" fill="url(#grid)"/>
  <!-- synapse / data nodes (circles) -->
  <circle cx="180" cy="120" r="3" fill="url(#nodeGrad)"/>
  <circle cx="320" cy="180" r="2.5" fill="url(#nodeGrad)"/>
  <circle cx="480" cy="100" r="4" fill="url(#nodeGrad)"/>
  <circle cx="620" cy="200" r="2" fill="url(#nodeGrad)"/>
  <circle cx="780" cy="140" r="3.5" fill="url(#nodeGrad)"/>
  <circle cx="920" cy="220" r="2" fill="url(#nodeGrad)"/>
  <circle cx="1050" cy="160" r="3" fill="url(#nodeGrad)"/>
  <circle cx="220" cy="280" r="2" fill="url(#nodeGrad)"/>
  <circle cx="400" cy="320" r="3" fill="url(#nodeGrad)"/>
  <circle cx="560" cy="380" r="2.5" fill="url(#nodeGrad)"/>
  <circle cx="720" cy="300" r="2" fill="url(#nodeGrad)"/>
  <circle cx="860" cy="360" r="3" fill="url(#nodeGrad)"/>
  <circle cx="1000" cy="400" r="2" fill="url(#nodeGrad)"/>
  <circle cx="300" cy="440" r="2.5" fill="url(#nodeGrad)"/>
  <circle cx="500" cy="480" r="2" fill="url(#nodeGrad)"/>
  <circle cx="680" cy="460" r="3" fill="url(#nodeGrad)"/>
  <circle cx="840" cy="500" r="2" fill="url(#nodeGrad)"/>
  <!-- connections (synapse / data flow lines) -->
  <path d="M180 120 L320 180" stroke="url(#lineGrad)" stroke-width="0.8" stroke-opacity="0.7"/>
  <path d="M320 180 L480 100" stroke="url(#lineGrad)" stroke-width="0.6" stroke-opacity="0.6"/>
  <path d="M480 100 L620 200" stroke="url(#lineGrad)" stroke-width="0.8" stroke-opacity="0.7"/>
  <path d="M620 200 L780 140" stroke="url(#lineGrad)" stroke-width="0.6" stroke-opacity="0.6"/>
  <path d="M780 140 L920 220" stroke="url(#lineGrad)" stroke-width="0.8" stroke-opacity="0.7"/>
  <path d="M920 220 L1050 160" stroke="url(#lineGrad)" stroke-width="0.6" stroke-opacity="0.6"/>
  <path d="M180 120 L220 280" stroke="url(#lineGrad)" stroke-width="0.5" stroke-opacity="0.5"/>
  <path d="M320 180 L400 320" stroke="url(#lineGrad)" stroke-width="0.6" stroke-opacity="0.6"/>
  <path d="M480 100 L400 320" stroke="url(#lineGrad)" stroke-width="0.5" stroke-opacity="0.5"/>
  <path d="M400 320 L560 380" stroke="url(#lineGrad)" stroke-width="0.6" stroke-opacity="0.6"/>
  <path d="M620 200 L720 300" stroke="url(#lineGrad)" stroke-width="0.6" stroke-opacity="0.6"/>
  <path d="M560 380 L720 300" stroke="url(#lineGrad)" stroke-width="0.5" stroke-opacity="0.5"/>
  <path d="M720 300 L860 360" stroke="url(#lineGrad)" stroke-width="0.6" stroke-opacity="0.6"/>
  <path d="M780 140 L860 360" stroke="url(#lineGrad)" stroke-width="0.5" stroke-opacity="0.5"/>
  <path d="M860 360 L1000 400" stroke="url(#lineGrad)" stroke-width="0.6" stroke-opacity="0.6"/>
  <path d="M220 280 L300 440" stroke="url(#lineGrad)" stroke-width="0.5" stroke-opacity="0.5"/>
  <path d="M400 320 L300 440" stroke="url(#lineGrad)" stroke-width="0.5" stroke-opacity="0.5"/>
  <path d="M300 440 L500 480" stroke="url(#lineGrad)" stroke-width="0.6" stroke-opacity="0.6"/>
  <path d="M560 380 L500 480" stroke="url(#lineGrad)" stroke-width="0.5" stroke-opacity="0.5"/>
  <path d="M500 480 L680 460" stroke="url(#lineGrad)" stroke-width="0.6" stroke-opacity="0.6"/>
  <path d="M720 300 L680 460" stroke="url(#lineGrad)" stroke-width="0.5" stroke-opacity="0.5"/>
  <path d="M680 460 L840 500" stroke="url(#lineGrad)" stroke-width="0.6" stroke-opacity="0.6"/>
  <path d="M860 360 L840 500" stroke="url(#lineGrad)" stroke-width="0.5" stroke-opacity="0.5"/>
</svg>
